<?xml version="1.0" encoding="utf-8"?>
<!-- Generator: Adobe Illustrator 24.0.1, SVG Export Plug-In . SVG Version: 6.00 Build 0)  -->
<svg version="1.1" id="Layer_5" xmlns="http://www.w3.org/2000/svg" xmlns:xlink="http://www.w3.org/1999/xlink" x="0px" y="0px"
	 viewBox="0 0 113.39 102.05" style="enable-background:new 0 0 113.39 102.05;" xml:space="preserve">
<style type="text/css">
	.st0{fill:none;stroke:#000000;stroke-width:7.3297;stroke-miterlimit:10;}
	.st1{fill:#31ADE4;}
	.st2{fill:#FFFFFF;}
</style>
<path class="st0" d="M-118.15,11.98"/>
<g>
	<path class="st1" d="M69.01,41.94c-18.42-4.37-34.79-0.52-48.16,13.37c-2.27,2.35-2.51,2.48-3.85,3.82
		c1.34,1.34,1.59,1.47,3.85,3.82c13.37,13.89,29.74,17.73,48.16,13.37c10.71-2.54,19.45-8.4,26.31-17.18
		C88.46,50.33,79.72,44.47,69.01,41.94z"/>
	<g>
		<path d="M68.84,59.39c0.01,6.73-5.41,12.16-12.13,12.18c-6.69,0.01-12.16-5.45-12.16-12.15c0-6.71,5.44-12.16,12.14-12.17
			C63.4,47.24,68.83,52.67,68.84,59.39z M56.66,51.82c-4.24,0.02-7.67,3.46-7.62,7.66c0.04,4.12,3.46,7.51,7.6,7.53
			c4.23,0.02,7.69-3.39,7.7-7.59C64.36,55.21,60.91,51.8,56.66,51.82z"/>
		<path class="st2" d="M56.66,51.82c4.25-0.02,7.69,3.39,7.68,7.59c-0.01,4.2-3.47,7.61-7.7,7.59c-4.14-0.02-7.56-3.41-7.6-7.53
			C49,55.28,52.43,51.83,56.66,51.82z"/>
	</g>
	<g>
		<path d="M89.6,47.11c-0.33-0.26-0.67-0.51-1.01-0.77l12.14-10.68l-2.97-3.38L84.76,43.71c-4.64-2.89-9.64-5-14.82-6.33l3.95-16.89
			l-4.38-1.02l-3.96,16.98c-6.22-1.06-12.6-1.03-18.8,0.06l-3.92-16.78l-4.38,1.02l3.9,16.72c-5.17,1.36-10.15,3.49-14.74,6.38
			L14.46,32.28l-2.97,3.38L23.81,46.5c-1.4,1.07-2.76,2.22-4.06,3.45c-2.84,2.69-5.08,5.58-8.14,9.18c2.91,3.33,5.3,6.49,8.14,9.18
			c18.87,17.85,49.34,19.15,69.85,2.83c4.37-3.47,8.33-8.1,12.3-12.02C97.79,54.84,93.96,50.58,89.6,47.11z M69.01,76.31
			c-18.42,4.37-34.79,0.52-48.16-13.37c-2.27-2.35-2.51-2.48-3.85-3.82c1.34-1.34,1.59-1.47,3.85-3.82
			c13.37-13.89,29.74-17.73,48.16-13.37c10.71,2.54,19.45,8.4,26.31,17.19C88.46,67.91,79.72,73.77,69.01,76.31z"/>
	</g>
</g>
</svg>
